/* XPM */
static char *_36f20e4b7904167c98c7326a8b7f40f[] = {
/* columns rows colors chars-per-pixel */
"32 32 256 2 ",
"   c #010101",
".  c #090601",
"X  c #0D0A03",
"o  c #07080C",
"O  c #120E02",
"+  c #100F0A",
"@  c #151104",
"#  c #1A1605",
"$  c #1F1802",
"%  c #11100C",
"&  c #1C180A",
"*  c #1A170E",
"=  c #0C0D11",
"-  c #060914",
";  c #121314",
":  c #1C1A13",
">  c #151618",
",  c #1B1C1B",
"<  c #241C04",
"1  c #211C0D",
"2  c #272007",
"3  c #2F2506",
"4  c #2C240B",
"5  c #382D06",
"6  c #30270B",
"7  c #362C0C",
"8  c #3A2E0A",
"9  c #332907",
"0  c #3C300B",
"q  c #2A2411",
"w  c #2A281F",
"e  c #24221A",
"r  c #312910",
"t  c #1C1F27",
"y  c #191F2A",
"u  c #1E2024",
"i  c #1E222A",
"p  c #222323",
"a  c #272826",
"s  c #22252B",
"d  c #27292C",
"f  c #2A2C2C",
"g  c #2E2B21",
"h  c #262830",
"j  c #2B2D32",
"k  c #2A2F3A",
"l  c #2E3134",
"z  c #2D313B",
"x  c #323536",
"c  c #33363B",
"v  c #363A3B",
"b  c #393D3D",
"n  c #43370F",
"m  c #47390B",
"M  c #4B3C0D",
"N  c #453910",
"B  c #493B10",
"V  c #41391E",
"C  c #4F4112",
"Z  c #4E431C",
"A  c #534312",
"S  c #5D4C13",
"D  c #584A1E",
"F  c #604E14",
"G  c #635116",
"H  c #6D5816",
"J  c #6D5A1A",
"K  c #685517",
"L  c #715C18",
"P  c #76601A",
"I  c #7C661C",
"U  c #594C21",
"Y  c #635321",
"T  c #776528",
"R  c #78662A",
"E  c #7D6928",
"W  c #796525",
"Q  c #343740",
"!  c #3A3D44",
"~  c #3A3F48",
"^  c #353842",
"/  c #3E4348",
"(  c #3E4551",
")  c #424445",
"_  c #494C4E",
"`  c #474B4C",
"'  c #4A4D54",
"]  c #454C58",
"[  c #454852",
"{  c #4C5153",
"}  c #4E515A",
"|  c #505556",
" . c #52555A",
".. c #565B5C",
"X. c #545964",
"o. c #575E69",
"O. c #5D5F68",
"+. c #565964",
"@. c #5E6571",
"#. c #676769",
"$. c #706F6F",
"%. c #7B776B",
"&. c #646771",
"*. c #656973",
"=. c #6A6C72",
"-. c #6C6F79",
";. c #6C717B",
":. c #727272",
">. c #767779",
",. c #7B7B7A",
"<. c #836C1E",
"1. c #8C721E",
"2. c #836D22",
"3. c #8D7421",
"4. c #8C7528",
"5. c #947A24",
"6. c #9B8128",
"7. c #A5892C",
"8. c #AB8D2C",
"9. c #AD902F",
"0. c #B2932E",
"q. c #A58B32",
"w. c #AA8F32",
"e. c #A78F38",
"r. c #AB9136",
"t. c #B29635",
"y. c #BC9C32",
"u. c #B3993C",
"i. c #B89D3D",
"p. c #BEA13E",
"a. c #C3A336",
"s. c #C4A439",
"d. c #CDAB39",
"f. c #CDAA36",
"g. c #D2AE39",
"h. c #D6B23A",
"j. c #D9B53C",
"k. c #DEB93E",
"l. c #E0BA3E",
"z. c #B39A41",
"x. c #B99F44",
"c. c #BCA34A",
"v. c #BCA142",
"b. c #BFA654",
"n. c #BBA658",
"m. c #81817F",
"M. c #C2A74A",
"N. c #C5AA4C",
"B. c #C9AC4A",
"V. c #CEB04E",
"C. c #DBB741",
"Z. c #DDB942",
"A. c #C9AE52",
"S. c #C3AB57",
"D. c #CDB254",
"F. c #D4B653",
"G. c #D0B458",
"H. c #D4B95C",
"J. c #DCBE5F",
"K. c #E3BE42",
"L. c #C2AC60",
"P. c #C9B56B",
"I. c #DBBE60",
"U. c #CCB976",
"Y. c #D0BC74",
"T. c #EBC442",
"R. c #F2CA45",
"E. c #DDC266",
"W. c #D3C06F",
"Q. c #DCC26E",
"!. c #D7C175",
"~. c #D9C47C",
"^. c #E3C76B",
"/. c #E5CC77",
"(. c #E9D17D",
"). c #727B84",
"_. c #7A7D86",
"`. c #848483",
"'. c #83898E",
"]. c #8A8A8A",
"[. c #83858A",
"{. c #8B8D93",
"}. c #818A94",
"|. c #8E9097",
" X c #8B929B",
".X c #99999A",
"XX c #A09F9B",
"oX c #A2A19F",
"OX c #989DA4",
"+X c #9DA4AB",
"@X c #A4A3A3",
"#X c #A5A9AE",
"$X c #ABABAA",
"%X c #B0B0AE",
"&X c #A4ADB3",
"*X c #ACADB2",
"=X c #A6B0B7",
"-X c #AAB2B6",
";X c #ACB5BA",
":X c #AFB9BF",
">X c #B2B3B4",
",X c #B8B9BC",
"<X c #DCCD95",
"1X c #DCD093",
"2X c #EDDA8E",
"3X c #E6D289",
"4X c #E0D191",
"5X c #EDDA93",
"6X c #EBDD9E",
"7X c #F1DF98",
"8X c #F2DE94",
"9X c #F1E19C",
"0X c #D7CDA7",
"qX c #DACFA5",
"wX c #DDD2AE",
"eX c #E9DAA6",
"rX c #ECDEB2",
"tX c #EFE0AC",
"yX c #EFE2A3",
"uX c #F1E3A0",
"iX c #F3E7AB",
"pX c #F5E8AA",
"aX c #EDE1B8",
"sX c #F8EFB5",
"dX c #F1E6BD",
"fX c #B4BDC3",
"gX c #BCBDC1",
"hX c #BEC0C5",
"jX c #BBC5CA",
"kX c #BFC8CC",
"lX c #C6C9CA",
"zX c #C5CFD3",
"xX c #CFD0D4",
"cX c #D3D4D4",
"vX c #DADBDB",
"bX c #E0DFDD",
"nX c #F4E9C2",
"mX c #F8EFCF",
"MX c #F8F1CF",
"NX c #EFECDE",
"BX c #F3EDD7",
"VX c #FBF3D4",
"CX c #DDDEE0",
"ZX c #E3E3E3",
"AX c #EFEDE7",
"SX c #E6E6E9",
"DX c #E7E8EE",
"FX c #ECECEB",
"GX c #F1EDE1",
"HX c #F7F1E0",
"JX c #F8F3E3",
"KX c #F5F2EA",
"LX c #F6F6F5",
"PX c #F8F7F6",
"IX c #FCFBF4",
"UX c #FDFDFD",
/* pixels */
"UXUXUXUXUXUXUXPXUXUXUXSX#X-.] ^ c [ *.OXCXUXUXUXPXUXUXUXUXUXUXUX",
"UXUXUXUXUXUXUXUXUX,X} , 6 S <.5.5.2.G 8 , ! #XUXUXUXUXUXUXUXUXUX",
"UXUXUXUXUXPXUXcX! @ L d.K.f.9.5.5.7.s.K.j.1.$ h ,XUXUXUXUXUXUXUX",
"UXUXUXUXUXUX{.o H K.g.K < > i k k s > & A y.T.3.. *.UXUXPXUXUXUX",
"UXUXUXUXUX:.< a.T.T , ]  X:XkXzXzXlXfXOXX.u U Z.K.5 _ PXUXUXUXUX",
"UXUXPXUX>.  Z J $   u ` / v / v x v ! ) ` f   X F Y   _ UXUXUXUX",
"UXUXUX.X< Y . o =.XX].`.`.].%.`.{.].`.`.`.]..X`.= . Z 0 *.UXPXUX",
"UXUXvX% a.2.  XXUXUXUXUXUXJXc.Y.VXUXUXUXUXUXUXUXlX  C k.@ >XUXUX",
"PXUX .G R.9 ..UXPXPXPXUXKXb.w.r.u.!.BXUXUXUXLXLXUX].O K.5.j UXUX",
"UXzX* j.q.  m.UXUXUXUXUXdXH.A.D.D.V.E.7XaXKXUXPXUX%X  T T.3 OXUX",
"UX#.F T.V = ,.UXPXUXUXUXUXIX6XJ./.8X9X9XuX4XqXAXUX$X= w h.1.! UX",
"LXa y.8.l _ >.UXPXUXUXUXUXUXUXBX<X4XiXpX9X5XE.N.tX@Xb / I k.e cX",
"gXq T.F o. .$.UXUXUXUXUXUXUXUXUXKXn.H.E.J.V.F.Q.VX@Xv _.8 R.n {.",
"{.N R.r }. .:.UXPXUXUXUXUXUXUXaXD.D.D.N.v.W.dXPXUX@Xx +X1 l.H +.",
"*.G K.1 +X{ :.UXPXUXUXUXUXIX4Xp.x.z.r.t.4XIXUXPXUX@Xj :X, s.5.c ",
"} P j.: ;X' :.UXPXUXUXUXBXP.8.e.e.7.x.rXUXUXUXUXUX@Xh jXp 0.8.h ",
"' I h.* :X_ :.UXPXUXVX~.u.q.u.u.t.U.JXUXUXUXUXUXUX@Xj jXp 8.8.p ",
"o.J k.: &X{ :.UXKX<XM.i.c.A.N.c.wXUXUXUXUXUXUXPXUX@Xj fXu y.6.z ",
"_.C T.4  X .$.nXS.B.F.F.J.D.P.KXUXIXUXUXUXUXUXPXUX@Xl =X: h.I ' ",
"-Xr T.B ;...#.1XA.^.3X5X9XyX9XnXIXUXUXUXUXUXUXUXUX@Xv  X4 T.A _.",
"SXp g.1./  .$.UXNXtXiXsXpXpX9X(.2XtXHXUXUXUXUXPXUX@Xb X.S T.q ,X",
"UX' I j.g h ,.UXPXUXIXMX/.F.F.H.D.B.S.U.NXUXUXUXUX$Xp d t.9.f UX",
"UX*X2 T.T   `.UXPXUXUXUXPXeXS.t.u.z.w.z.GXUXUXPXUX%X  Z R.M _.UX",
"UXUXx 1.K.. >.UXPXPXUXUXUXUXLX0Xn.8.z.BXUXUXUXLXUX$X  p.y., SXUX",
"UXUX>X# K.J - bXUXUXUXUXUXUXUXUXUXnXMXUXUXUXUXUXPXk 0 R.9 ].UXPX",
"UXPXUXO.B E   f cXFXZXZXZXSXZXZXSXDXSXZXSXZXSXSX)   U H c UXUXUX",
"UXUXUXUX) . q O   o a a , , , , , , : , p f =   X q O p ZXUXUXUX",
"UXUXUXUXFXj 5 C.w.# y ).#X;X-X-X=X-X;X&X'.z o 4.K.S ; cXUXPXUXUX",
"UXUXUXPXUXLX_ $ y.T.2.1 i ( @.).).*.] h * K Z.h.5 j ZXUXUXUXUXUX",
"UXUXUXUXUXUXUX{.= M y.Z.0.P B 8 8 M K 7.j.f.S . =.LXUXPXUXUXUXUX",
"UXUXUXUXUXUXPXUXSX;., 6 J 7.a.d.f.s.9.I 0 , +.cXUXUXUXUXUXUXUXUX",
"UXUXUXUXUXUXUXUXUXUXFX+XX.h > % + ; s ] |.SXUXUXPXUXUXUXUXUXUXUX"
};
