/* XPM */
static char *e79142103bfa41ebff67ecd28bcf06f1[] = {
/* columns rows colors chars-per-pixel */
"16 16 234 2 ",
"   c #FDFDFD",
".  c #FDFDFD",
"X  c gray98",
"o  c gray100",
"O  c #DADDE6",
"+  c #969590",
"@  c #7D7351",
"#  c #746534",
"$  c #736432",
"%  c #7C714D",
"&  c #929088",
"*  c #D3D6DF",
"=  c #FBFBFA",
"-  c gray99",
";  c #FDFDFD",
":  c #FDFDFD",
">  c #FBFBFB",
",  c #AAA9A5",
"<  c #7D6C35",
"1  c #876E1E",
"2  c #7B692A",
"3  c #786B3C",
"4  c #796D3F",
"5  c #7A692E",
"6  c #856D1E",
"7  c #7F6D31",
"8  c #A09E97",
"9  c #FDFEFF",
"0  c gray99",
"q  c gray99",
"w  c #FBFBFB",
"e  c #73757B",
"r  c #473700",
"t  c #5C490D",
"y  c #323332",
"u  c #565E6C",
"i  c #697487",
"p  c #656F7D",
"a  c #565E69",
"s  c #343738",
"d  c #55450F",
"f  c #4E3C00",
"g  c #626367",
"h  c #FEFFFF",
"j  c gray99",
"k  c #A8A8A6",
"l  c #4F3E05",
"z  c #373633",
"x  c #B2B5BE",
"c  c #C7C8CB",
"v  c #BBB8AF",
"b  c #95895E",
"n  c #B8B4A9",
"m  c #C5C6CA",
"M  c #C5C6C9",
"N  c #B9BCC3",
"B  c #3F3F40",
"V  c #493800",
"C  c #9C9A92",
"Z  c #DCE0EA",
"A  c #7F6F3A",
"S  c #6A550E",
"D  c #A4A7B1",
"F  c #ECDEAC",
"G  c #C1A235",
"H  c #DFC469",
"J  c #FEF3C6",
"K  c #FDFDF3",
"L  c #B9BCC5",
"P  c #635014",
"I  c #826E2E",
"U  c #CCD0DA",
"Y  c #9A9A98",
"T  c #957A21",
"R  c #333127",
"E  c #B9BABE",
"W  c gray97",
"Q  c #F9F8F0",
"!  c #EFE3BD",
"~  c #E0CE8A",
"^  c #EEDE95",
"/  c #E6D48C",
"(  c #E2CF91",
")  c #C5C2B6",
"_  c #2F3130",
"`  c #95791F",
"'  c #8D8A82",
"]  c #857D60",
"[  c #8F7727",
"{  c #4C525B",
"}  c #BFBFBE",
"|  c #F9F9F8",
" . c #FCFAF4",
".. c #D5C383",
"X. c #C9AD4E",
"o. c #CFB559",
"O. c #F1DFA2",
"+. c #C9C5B9",
"@. c #4D5562",
"#. c #8B762C",
"$. c #7F734B",
"%. c #7E7042",
"&. c #887532",
"*. c #59626E",
"=. c #BCBBB9",
"-. c #FDFEFE",
";. c #EBE5C8",
":. c #BBA24B",
">. c #A88B24",
",. c #C2AC5E",
"<. c #F2EDDA",
"1. c #CCCAC8",
"2. c #59626F",
"3. c #85753C",
"4. c #7B6930",
"5. c #7D6F40",
"6. c #877433",
"7. c #5A626F",
"8. c #BDBDBC",
"9. c #FFFBEB",
"0. c #D0BB76",
"q. c #B69937",
"w. c #B3993F",
"e. c #D4C798",
"r. c #FDFBF6",
"t. c #FCFDFE",
"y. c #CAC9C7",
"u. c #5B6371",
"i. c #84753E",
"p. c #7A682E",
"a. c #847A5A",
"s. c #8C7427",
"d. c #535B68",
"f. c #AAA48C",
"g. c #DBC063",
"h. c #D9BE60",
"j. c #E4CF7F",
"k. c #ECE0B2",
"l. c #FFFFFE",
"z. c #FBFBFA",
"x. c #CECDCB",
"c. c #515865",
"v. c #897530",
"b. c #7F7146",
"n. c #95938E",
"m. c #93781F",
"M. c #363632",
"N. c #B9BABA",
"B. c #FFFCEA",
"V. c #F7EFCA",
"C. c #EAD890",
"Z. c #DBC164",
"A. c #D9C171",
"S. c #DDD0A3",
"D. c #F6F5F1",
"F. c #CECECE",
"G. c #323537",
"H. c #927821",
"J. c #8A8678",
"K. c #D1D4DF",
"L. c #827032",
"P. c #5C4B10",
"I. c #ACAFB8",
"U. c #FDFDFE",
"Y. c #FBF6E6",
"T. c #DACA94",
"R. c #B79C3D",
"E. c #C8B369",
"W. c #FCFCFB",
"Q. c #C1C4CC",
"!. c #544515",
"~. c #857029",
"^. c #C0C3CD",
"/. c #9A9891",
"(. c #594502",
"). c #4B4C4F",
"_. c #DEE0E7",
"`. c #E7E6E4",
"'. c #E2E2E4",
"]. c #E2E3E9",
"[. c #D6D1C3",
"{. c #DFDCD4",
"}. c #E8E8EA",
"|. c #E5E7EC",
" X c #575961",
".X c #544000",
"XX c #8F8B7E",
"oX c #FDFCFC",
"OX c #FDFEFF",
"+X c #5A5B5D",
"@X c #332500",
"#X c #50441D",
"$X c #363A43",
"%X c #5B626D",
"&X c #656B73",
"*X c #68707C",
"=X c #5E6673",
"-X c #383D47",
";X c #4B411F",
":X c #3B2C00",
">X c #494949",
",X c #F6F7F9",
"<X c #FEFEFD",
"1X c gray99",
"2X c #FDFDFC",
"3X c #F9FAFC",
"4X c #979487",
"5X c #7B6723",
"6X c #7B651E",
"7X c #73683D",
"8X c #777257",
"9X c #777257",
"0X c #73683F",
"qX c #7A6520",
"wX c #7C661F",
"eX c #8F8A79",
"rX c #F3F4F7",
"tX c #FFFEFE",
"yX c gray99",
"uX c #FDFDFD",
"iX c gray99",
"pX c #FCFCFB",
"aX c #C4C6CF",
"sX c #857F6D",
"dX c #716131",
"fX c #675418",
"gX c #675417",
"hX c #6F5F2D",
"jX c #827B65",
"kX c #BBBEC5",
"lX c #FDFEFF",
"zX c #FDFCFC",
"xX c gray99",
"cX c #FDFDFD",
/* pixels */
"  . X o O + @ # $ % & * o = - ; ",
": > o , < 1 2 3 4 5 6 7 8 9 0 q ",
"w o e r t y u i p a s d f g h j ",
"o k l z x c v b n m M N B V C o ",
"Z A S D o o F G H J K o L P I U ",
"Y T R E o W Q ! ~ ^ / ( ) _ ` ' ",
"] [ { } o | o  ...X.o.O.+.@.#.$.",
"%.&.*.=.o -.;.:.>.,.<.o 1.2.3.4.",
"5.6.7.8.9.0.q.w.e.r.t.o y.u.i.p.",
"a.s.d.f.g.h.j.k.o l.z.o x.c.v.b.",
"n.m.M.N.B.V.C.Z.A.S.D.o F.G.H.J.",
"K.L.P.I.o U.Y.T.R.E.W.o Q.!.~.^.",
"o /.(.)._.`.'.].[.{.}.|. X.XXXo ",
"oXOX+X@X#X$X%X&X*X=X-X;X:X>X,X<X",
"1X2X3X4X5X6X7X8X9X0XqXwXeXrXtXyX",
"uXiXpXo aXsXdXfXgXhXjXkXlXzXxXcX"
};
