/* XPM */
static char *_516132179478[] = {
/* columns rows colors chars-per-pixel */
"64 64 210 2 ",
"   c #010101",
".  c #0B0906",
"X  c #060709",
"o  c #0C0C0C",
"O  c #080707",
"+  c #110E05",
"@  c #100F0E",
"#  c #151206",
"$  c #14120D",
"%  c #19160A",
"&  c #1D190C",
"*  c #191507",
"=  c #0D0E10",
"-  c #0F1111",
";  c #121312",
":  c #1B1A14",
">  c #1B1C1C",
",  c #181713",
"<  c #221D0C",
"1  c #211E15",
"2  c #252114",
"3  c #2B2515",
"4  c #292619",
"5  c #332D1A",
"6  c #322B15",
"7  c #3B331A",
"8  c #3B341A",
"9  c #3E330F",
"0  c #232322",
"q  c #2D2D2D",
"w  c #272827",
"e  c #353228",
"r  c #333333",
"t  c #3C3C3B",
"y  c #363638",
"u  c #302F29",
"i  c #433A1D",
"p  c #473C18",
"a  c #413920",
"s  c #4D421E",
"d  c #5B4C1D",
"f  c #4C4222",
"g  c #514622",
"h  c #584C24",
"j  c #564B26",
"k  c #5D5127",
"l  c #554D31",
"z  c #6B5C2A",
"x  c #655729",
"c  c #72622D",
"v  c #78672D",
"b  c #7B682A",
"n  c #7A6932",
"m  c #3F4141",
"M  c #444443",
"N  c #4C4C4B",
"B  c #464847",
"V  c #4E5151",
"C  c #5C5D5C",
"Z  c #555656",
"A  c #51504E",
"S  c #62615F",
"D  c #5C5F60",
"F  c #5E6262",
"G  c #656565",
"H  c #66696A",
"J  c #70706E",
"K  c #6D7274",
"L  c #757573",
"P  c #747A7C",
"I  c #7C7C7B",
"U  c #737779",
"Y  c #706F6D",
"T  c #89732A",
"R  c #927928",
"E  c #816E31",
"W  c #8A7635",
"Q  c #937D33",
"!  c #9C8435",
"~  c #998238",
"^  c #9F8427",
"/  c #AA8E2E",
"(  c #A2882C",
")  c #B7972E",
"_  c #A38B34",
"`  c #A88E36",
"'  c #A78D39",
"]  c #AC9135",
"[  c #AC933A",
"{  c #B1963A",
"}  c #B4993C",
"|  c #BA9D3B",
" . c #B49736",
".. c #BFA13C",
"X. c #CDAA35",
"o. c #C3A33C",
"O. c #CCAB3C",
"+. c #C6A435",
"@. c #D2AD35",
"#. c #D1AE3D",
"$. c #D6B136",
"%. c #DAB437",
"&. c #D6B23D",
"*. c #DBB63A",
"=. c #DEB83B",
"-. c #E2BB3B",
";. c #E3BB37",
":. c #EBC33E",
">. c #B59C41",
",. c #B99F42",
"<. c #B59E4D",
"1. c #B09A49",
"2. c #BDA245",
"3. c #BDA44B",
"4. c #B8A456",
"5. c #81807F",
"6. c #BBA967",
"7. c #C1A543",
"8. c #C1A64A",
"9. c #C4AA4C",
"0. c #CAAC47",
"q. c #D7B441",
"w. c #C5AC53",
"e. c #C9AE51",
"r. c #C5AF5A",
"t. c #CDB154",
"y. c #CDB35A",
"u. c #D2B555",
"i. c #D3B659",
"p. c #D6B95A",
"a. c #DABC5E",
"s. c #D0AF40",
"d. c #CAB568",
"f. c #DCBE61",
"g. c #D3BA62",
"h. c #D1BF7E",
"j. c #C5B271",
"k. c #DEC164",
"l. c #DAC16D",
"z. c #D9C374",
"x. c #E2C66B",
"c. c #E3C86F",
"v. c #E0C367",
"b. c #E4CA72",
"n. c #E6CE7B",
"m. c #E8D17D",
"M. c #F0C740",
"N. c #797E80",
"B. c #7B8183",
"V. c #848484",
"C. c #87898A",
"Z. c #8E969A",
"A. c #8C9295",
"S. c #959593",
"D. c #969A9C",
"F. c #8D8F90",
"G. c #A1A19F",
"H. c #9AA2A6",
"J. c #9DA5A9",
"K. c #A6A6A4",
"L. c #A1AAAE",
"P. c #A9AAAA",
"I. c #A4ADB1",
"U. c #ACB5BA",
"Y. c #AFB9BE",
"T. c #A8B1B6",
"R. c #B0BABF",
"E. c #BBBBBB",
"W. c #B4B3B3",
"Q. c #CCBC84",
"!. c #D8C788",
"~. c #D8C998",
"^. c #E9D384",
"/. c #E9D68B",
"(. c #EDDB94",
"). c #EEDC9C",
"_. c #E4D496",
"`. c #F1E29D",
"'. c #D4CDB2",
"]. c #E9DAA8",
"[. c #E3D9B6",
"{. c #F2E4A4",
"}. c #F4E8AC",
"|. c #F6ECB2",
" X c #F3E8BA",
".X c #F9F1BC",
"XX c #EEE1B8",
"oX c #B3BCC2",
"OX c #BAC4CA",
"+X c #C5C4C4",
"@X c #CCCCCC",
"#X c #D3D3D3",
"$X c #DCDCDB",
"%X c #D0D0CF",
"&X c #E3DBC1",
"*X c #EBE3C8",
"=X c #F5ECC9",
"-X c #FCF6C5",
";X c #EDE8D6",
":X c #F3EDDB",
">X c #FAF4D8",
",X c #E4E4E4",
"<X c #EDEDED",
"1X c #F9F6EC",
"2X c #F9F5E5",
"3X c #F4F3F3",
"4X c #FBFAF4",
"5X c #FDFDFD",
"6X c #F9F7F1",
"7X c #F1EFE8",
/* pixels */
"5X5X5X5X5X5X5X5X5X5X5X5X5X5X5X5X5X5X5X5X5X3X5X5X5X5X5X,X#XW.K.S.S.G.P.+X,X3X5X5X5X5X5X5X5X5X5X5X5X5X5X5X5X5X5X5X5X5X5X5X5X5X5X5X",
"5X5X5X5X5X5X5X5X5X5X5X5X5X5X5X5X5X5X5X4X5X5X5X#XD.S q ;                 O 0 N V.E.3X5X5X5X5X5X5X5X5X5X5X5X5X5X5X5X5X5X5X5X5X5X5X",
"5X5X5X5X5X5X5X5X5X5X5X5X5X5X5X5X5X5X5X5X$XI r         . 2 i l k d l f 6 %         , Z E.5X5X5X5X5X5X5X5X5X5X5X5X5X5X5X5X5X5X5X5X",
"5X5X5X5X5X5X5X5X5X5X5X5X5X5X5X5X5X5X+XZ .     & h W [ O.&.&.*.=.-.*.*.&.O.| ~ z 6 O     q D.4X5X5X3X5X5X5X5X5X5X5X5X5X5X5X5X5X5X",
"5X5X5X5X5X5X5X5X5X5X5X5X5X5X5X5X%XN     . h ' O.*.%.%.;.-.*.=.*.*.=.=.=.%.%.*.-.*.| v 1     0 K.5X5X5X5X5X5X5X5X5X5X5X5X5X5X5X5X",
"5X5X5X5X5X5X5X5X5X5X5X5X3X5X3XU O   ; c o.-.$.$.*.*.o.` W z k s p j x E _ | #.*.%.$.*.#.Q 5     t %X5X5X5X5X5X5X5X5X5X5X5X5X5X5X",
"5X5X5X5X5X5X5X5X5X5X5X5X5X@X0   . x o.-.$.*.*.} b 7 o                       3 x ~ #.;.@.*.&.Q 2   O V.5X5X5X5X5X5X5X5X5X5X5X5X5X",
"5X5X5X5X5X5X5X5X5X5X5X5XD.O   7 { -.@.$.&.! i       O w B G U I I I H V r ;       1 v 0.=.@.=.#.x .   Z 3X5X3X5X5X5X5X5X5X5X5X5X",
"5X5X5X5X5X5X5X5X5X4X5XL     x &.$.@.-._ 5     ; B N.J.U.oXoXoXoXoXoXoXoXR.I.A.C 0     $ n O.*.X.-._ ;   r ,X5X5X5X5X5X5X5X5X5X5X",
"5X5X5X5X5X5X5X5X5X5XG   o ~ :.$.=.o.f     0 K T.OXOXR.U.U.U.U.U.U.U.U.U.U.Y.oXOXoXF.m O   1 ! =.#.-.O.7   0 #X5X5X5X5X5X5X5X5X5X",
"5X5X5X5X5X5X5X5X5XG   X b +./ ) R ;   O N Z.J.Z.Z.Z.Z.Z.Z.Z.Z.Z.Z.Z.Z.Z.Z.Z.Z.A.Z.H.H.K ,     x ) / ) ] 4   > ,X5X5X5X5X5X5X5X5X",
"5X5X5X5X5X5X5X5X5.  ; o                                                                                 . $   r <X5X5X5X5X5X5X5X",
"5X5X5X5X5X5X5XP.  O ~ &   < .   O q q q q q r q q q r q r y q q q q q r q q r q q q r q q q r ,     % #   T i   Z 5X5X5X5X5X5X5X",
"5X5X5X5X5X5X#Xo   T %.. + s   O P.5X5X5X5X5X5X5X5X5X5X5X:X[.5X5X5X5X5X5X5X5X5X5X5X5X5X5X5X5X5X,Xr   6 p   R O.,   V.5X5X5X5X5X5X",
"5X5X5X5X5X5Xt   h -.+.+     . E.5X5X5X5X5X5X5X5X5X5X5X6X<.^ 4.[.4X5X5X5X5X5X5X5X5X5X5X5X5X5X5X5X3Xt   O   T :._     +X5X5X5X5X5X",
"5X5X5X3X5XF.  4 &.$.X.*     P.5X5X5X5X5X5X5X5X5X5X5X5Xj.( _ _ ] d.[.4X5X5X5X5X5X5X5X5X5X5X5X5X5X5X<Xq     R $.-.c   r 5X5X5X5X5X",
"5X5X5X5X,X;   _ $.$.| .   C.5X4X5X5X5X5X5X5X5X5X5X5X]. .' [ [ [ } 7.l. X4X5X5X5X5X5X5X5X5X5X5X5X5X5X$X;   v -.X.&.5   D.5X5X5X5X",
"5X5X5X5XL   j =.X.-.g   $ <X5X5X5X5X5X5X5X5X5X5X5X=Xe.>.>.>.2.2.2.3.9.a.`.>X5X5X5X5X5X5X5X5X5X5X5X3X5XG   ; ..@.$._   2 <X5X5X5X",
"5X5X5X$Xo   } #.*.~     ; <X5X5X5X5X5X5X5X5X5X5X2Xl.0.2.3.9.9.9.e.t.t.t.g./.}..X1X5X5X5X5X5X5X5X5X3X5XG     g -.X.*.p   F.5X3X5X",
"5X5X5XI   h -.X.*.5     ; <X5X5X5X5X5X5X5X5X5X5X:X{.(.l.t.t.y.i.p.p.a.f.f.f.x.b.x._.:X5X5X5X5X5X5X5X5XG     X [ $.*._   w 3X5X5X",
"5X5X3X1   [ $.*.~   2 = o <X5X5X5X5X5X5X5X5X5X5X5X5X4X>X(.k.k.x.x.x.b.m.m././.(.(.m.g.Q.*X5X5X5X5X5X5XG   q   f *.@.*.7   P.5X5X",
"5X5XK.  i *.X.*.8   K > . 3X5X5X5X5X5X5X5X5X5X5X5X5X5X5X2X).f.k.^.`.`.`.}.|..X.X-X-X.X!.4.6.&X5X5X3X5XG   K >   } $.*.W   N 5X5X",
"5X5XC   W *.$.{   > L.- = <X5X5X5X5X5X5X5X5X5X5X5X5X5X5X5X5X2X!.w.h.}.-X.X.X.X|.}.}.`.{.(.i.>.r.&X5X5XG   B.H   x -.@.o.@ . ,X5X",
"5X<X, O 7.@.-.z   C Y.o o <X5X5X5X5X5X5X5X5X5X5X5X5X5X5X5X5X5X5X:X!.4.d./.`.`./.^.m.b.c.x.b.v.u.o.d.5XH   N.H.  < @.@.-.s   K.5X",
"5X'.  u *.@.&.3   A.U.o o <X5X5X5X5X5X5X5X5X5X5X5X5X5X5X5X5X5X4X5X5X&X_ 2.c.c.k.k.k.a.a.p.u.i.u.l.*X5XG   P OXw   ` $.=.W   G 5X",
"5XS.  x -.$.|   > U.I.= o 3X5X5X5X5X5X5X5X5X5X5X5X5X5X5X5X5X5X5X5X].w.t.f.a.p.p.i.u.t.t.e.t.x.].4X5X5XG   P OXC   z =.$.{   r 5X",
"5XC   Q *.%.Q   M oXL.o = <X5X5X5X5X5X5X5X5X5X5X5X5X5X5X5X5X5X:Xh.7.t.i.t.t.t.9.w.9.2.w.z.{.2X5X5X4X5XH   U OXB.  i *.@.s.; o ,X",
"5Xr   } $.-.x   H oXI.o o <X5X5X5X5X5X5X5X5X5X5X5X5X5X5X5X4X].i.9.t.e.9.9.8.8.3.>.>.z.}.>X5X5X5X5X5X5XG   P OXH.X & #.@.*.5   '.",
"3X> . O.@.*.f   B.oXL.= o <X5X5X5X5X5X5X5X5X5X5X5X5X5X5X>X^.t.9.3.2.2.>.>.>.} [ 3._.-X5X5X5X5X5X5X5X5XG   P oXI.>   o.@.*.h   D.",
"$XX < $.@.q.3   Z.oXL.o = <X5X5X5X5X5X5X5X5X5X5X5X5X4X=Xn.w.2.} >.} [ [ ] _ [ w.(.>X5X5X5X5X5X5X5X3X5XH   P oXU.r   ' *.-.c   V.",
"@X  u q.@.#.: X L.U.I.o o <X5X5X5X5X5X5X5X5X5X5X5X1X.Xz.1.` [ ] _ _ _ _ _ [ t.`.1X5X5X5X5X5X5X5X5X4X5XG   P Y.R.B   ~ =.*.W   Y ",
"+X  7 *.@.O.+ = I.U.I.o o <X5X5X5X5X5X5X5X5X5X4X>X_.3._ ( _ _ ! ` _ [ [ ..z.=X5X5X5X5X5X5X5X5X5X5X5X5XH   P R.oXV   T *.$.Q   S ",
"+X  9 =.@.+.. = L.U.I.o = <X5X5X5X5X5X5X5X5X=X/.r._ ( ] ] [ [ [ } ,. .3._.6X5X5X5X5X5X5X5X5X5X5X5X5X5XH   P Y.oXV   T *.*.R   C ",
"@X  8 q.@.X.+ = I.U.I.o o <X5X5X5X5X5X5X2X/.t.} ` [ >.} >.,.2.9.2. .d.;X5X5X5X5X5X5X5X5X5X5X5X5X5X4X5XG   P R.oXV   R *.*.W   G ",
"#X  4 q.@.s.: O H.U.I.o o 3X5X5X5X5X4X].u.2.} >.2.2.2.3.3.9.e. .{ ~.5X5X5X5X5X5X5X5X5X5X5X5X5X5X5X3X5XH   P oXoXM   ~ %.%.E   L ",
",XX & O.@.*.6   A.oXI.o o <X5X5X5X*Xd.7.2.2.9.9.9.9.t.t.i.9./ 6.;X5X5X5X5X5X5X5X5X5X5X5X5X5X5X5X5X5X5XG   P oXU.q   [ $.-.z   F.",
"3X0   o.$.=.g   N.oXI.o = <X5X1X!.2.2.e.e.t.t.t.i.i.a.a.8.<.'.5X5X5X5X5X5X5X5X5X5X5X5X5X5X5X5X5X5X5X5XH   P oXI.; . o.@.*.f   W.",
"5XM   [ $.=.c   F oXL.o = <X[.<.} t.i.i.p.a.a.k.k.x.k.2.r.:X5X5X5X5X5X5X5X5X5X5X5X5X5X5X5X5X5X5X5X3X5XG   P OXD.  1 #.@.&.6   %X",
"5XL   E *.*.~   t oXL.o ; '.[ ] i.k.v.k.x.c.b.n.^./.(.^.l.b.[.4X5X5X5X5X5X5X5X5X5X5X5X5X5X5X5X5X5X4X5XG   U OXB.  f *.@.o.O > <X",
"5XK.  h =.@.o.X ; I.I.o o <X1X~.w.t.b./.(.(.`.{.}.|..X.X-X{.^.`.>X5X5X5X5X5X5X5X5X5X5X5X5X5X5X5X5X5X5XH   U OXZ   E -.$.`   B 5X",
"5X#X  2 @.@.*.7   C.U.o = <X5X5X1X[.f.b.`..X.X-X-X.X.X|.}.}.{.(.`..X>X4X5X5X5X5X5X5X5X5X5X5X5X5X5X5X5XG   P oX>   { #.-.c   I 5X",
"5X5Xq   [ $.-.v   N U.o o <X5X5X5X5X4X X).}.|.{.`.(././.m.n.b.c.k.c.c.b.].2X5X5X5X5X5X5X5X5X5X5X5X5X5XG   B.D.  3 #.@.*.5   +X5X",
"5X5XI   z -.@.| O = H.= o <X5X5X5X5X5X5X5X2X=X`.m.b.c.x.v.a.a.p.p.i.t.u.0.y.~.:X5X5X5X5X5X5X5X5X5X3X5XH   B.V   v -.@.|   > 3X5X",
"5X5X+X  < O.@.=.g   D > o <X5X5X5X5X5X5X5X5X5X>X(.a.u.p.i.i.u.t.e.e.9.9.3.2...} Q.5X5X5X5X5X5X5X5X5X5XH   H ; O o.@.-.x   J 5X5X",
"5X5X5XM   R *.$.[   ; O ; <X5X5X5X5X5X5X5X5X5X5X5X;X!.0.2.9.9.3.2.2.2...>.>.[ ( ~.5X5X5X5X5X5X5X5X3X5XG   >   x =.@.O.&   #X5X5X",
"5X5X5XK.  6 *.X.=.f     ; <X5X5X5X5X5X5X5X5X5X5X5X5X5X;Xh.{ ] { { { { ] ` ! ( ~.5X5X5X5X5X5X5X5X5X4X5XG     o | @.=.b   N 5X5X5X",
"5X5X5X5Xq   Q =.$.{ O   ; <X5X5X5X5X5X5X5X5X5X5X5X5X5X5X5X;XQ.[ ` _ _ ! _ ] z.5X5X5X5X5X5X5X5X5X5X4X5XG     x *.@.s.1   E.5X5X5X",
"5X5X5X5XP.  3 &.@.-.x   o ,X5X5X5X5X5X5X5X5X5X5X5X5X5X5X5X5X5X7X~.w...[ ..z.3X5X5X5X5X5X5X5X5X5X5X5X5XC   2 #.@.=.c   N 5X3X5X5X",
"5X5X5X5X5Xl X c *.#.+.$   G 5X5X5X5X5X5X5X5X5X5X5X5X5X5X5X5X5X5X5X6X].l.k.2X5X5X5X5X5X5X5X5X5X5X3X5XE.    T %.$.} .   +X5X5X5X5X",
"5X5X5X4X5X+X  X { *.+.#     V.5X4X5X5X5X5X5X5X5X5X5X5X5X5X5X5X4X5X5X5X6X2X5X5X5X5X5X5X5X5X5X5X3X5X#X;     T *.*.i   L 5X5X5X5X5X",
"5X5X5X5X4X5XU   1 #.@.+   .   F.5X5X5X5X5X5X5X5X5X5X5X5X5X5X5X5X5X5X5X5X5X5X5X5X5X5X5X5X5X5X5X5X#X>   .   T M.x   0 <X5X5X5X5X5X",
"5X5X5X5X5X5X5XM   p &.+ o d     I <X,X,X,X,X,X,X,X,X,X,X,X,X,X,X,X,X,X,X,X,X,X,X,X,X,X,X,X,X<XE.:   7 p   ^ !   O +X5X5X5X5X5X5X",
"5X5X5X5X5X3X5X,X1   h *   .       o . .   X O O O O X O O   O O O O O   X O O O O O X   X . o X     .     h $   D.5X3X5X5X5X5X5X",
"5X5X5X5X5X5X5X5X@Xo   X < # # * .       > , o = - ; ; - ; = ; ; ; ; ; ; - - = - ; o ; > .     X * * + & . X   I 5X5X5X5X5X5X5X5X",
"5X5X5X5X5X5X5X5X5XW.    g &.@.X.} 5     t Z.R.U.I.J.I.I.I.I.I.L.I.I.I.I.I.I.I.I.T.Y.I.H @   @ T @.+.=.Q o   G 5X5X5X5X5X5X5X5X5X",
"5X5X5X5X5X5X5X5X5X5XE.$   a O.%.$.*.v o   . B A.U.OXoXU.T.T.T.T.T.I.T.T.U.Y.oXoXJ.G >     i o.*.$.-.n o   Y 5X5X5X5X5X5X5X5X5X5X",
"5X5X5X5X5X5X5X5X5X4X5X%X0   1 _ =.@.*.7.x .     0 F C.J.U.oXoXoXoXoXoXY.I.Z.K t .     5 _ &.$.*.O.g     C.5X5X5X5X5X5X5X5X5X5X5X",
"5X5X5X5X5X5X5X5X5X5X3X5X<XM   X x O.*.$.*.| z ,       . 0 t V C Z C M q -       O f _ &.*.$.q.Q &   ; W.5X3X5X5X5X5X5X5X5X5X5X5X",
"5X5X5X5X5X5X5X5X5X5X5X5X5X5X5..   & E O.=.%.=.O.! z 5 .                 O 2 g T o.$.%.%.*.' a     M $X5X5X5X5X5X5X5X5X5X5X5X5X5X",
"5X5X5X5X5X5X5X5X5X5X5X5X5X5X5X#XM     1 n o.*.=.-.=.$.o.[ ~ W b c E Q _ | O.=.-.-.=.@.! a X   , K.5X5X5X5X5X5X5X5X5X5X5X5X5X5X5X",
"5X5X5X5X5X5X5X5X5X5X5X5X5X5X4X5X5XE.y     . g Q ..$.=.-.-.-.;.-.-.;.;.-.;.-.$.O.` z 4     ; V.<X5X5X5X5X5X5X5X5X5X5X5X5X5X5X5X5X",
"5X5X5X5X5X5X5X5X5X5X5X5X5X5X5X5X5X5X5XE.A O     . 6 x E _  .7.o.+.8.| ` Q c a *       q S.<X5X5X5X5X5X5X5X5X5X5X5X5X5X5X5X5X5X5X",
"5X5X5X5X5X5X5X5X5X5X5X5X5X5X5X5X5X4X5X5X5X$XS.N @           . o + o X         O q L +X3X5X5X3X5X5X5X5X5X5X5X5X5X5X5X5X5X5X5X5X5X",
"5X5X5X5X5X5X5X5X5X5X5X5X5X5X5X5X5X5X5X5X5X5X5X5X<XE.C.C y : o     O ; q N L P.$X5X5X5X5X5X5X5X5X5X5X5X5X5X5X5X5X5X5X5X5X5X5X5X5X"
};
